<svg height="3918" width="720" xmlns="http://www.w3.org/2000/svg">
<rect height="3918" fill="#555" width="720"></rect>
<text fill="#7f7" font-family="Courier New" font-size="12" xml:space="preserve">
<tspan x="10" y="26">└─┬ electron-builder@16.6.1 </tspan>
<tspan x="10" y="42">  ├─┬ 7zip-bin@2.0.4 </tspan>
<tspan x="10" y="58">  │ └── 7zip-bin-linux@1.0.3 </tspan>
<tspan x="10" y="74">  ├─┬ ajv@5.0.4-beta.2 </tspan>
<tspan x="10" y="90">  │ ├── co@4.6.0 </tspan>
<tspan x="10" y="106">  │ └─┬ json-stable-stringify@1.0.1 </tspan>
<tspan x="10" y="122">  │   └── jsonify@0.0.0 </tspan>
<tspan x="10" y="138">  ├── ajv-keywords@2.0.1-beta.2 </tspan>
<tspan x="10" y="154">  ├─┬ bluebird-lst@1.0.2 </tspan>
<tspan x="10" y="170">  │ └── bluebird@3.5.0 </tspan>
<tspan x="10" y="186">  ├─┬ chalk@1.1.3 </tspan>
<tspan x="10" y="202">  │ ├── ansi-styles@2.2.1 </tspan>
<tspan x="10" y="218">  │ ├── escape-string-regexp@1.0.5 </tspan>
<tspan x="10" y="234">  │ ├─┬ has-ansi@2.0.0 </tspan>
<tspan x="10" y="250">  │ │ └── ansi-regex@2.1.1 </tspan>
<tspan x="10" y="266">  │ ├── strip-ansi@3.0.1 </tspan>
<tspan x="10" y="282">  │ └── supports-color@2.0.0 </tspan>
<tspan x="10" y="298">  ├── chromium-pickle-js@0.2.0 </tspan>
<tspan x="10" y="314">  ├── cuint@0.2.2 </tspan>
<tspan x="10" y="330">  ├── electron-builder-core@16.6.0 </tspan>
<tspan x="10" y="346">  ├─┬ electron-builder-http@16.6.0 </tspan>
<tspan x="10" y="362">  │ └─┬ debug@2.6.3 </tspan>
<tspan x="10" y="378">  │   └── ms@0.7.2 </tspan>
<tspan x="10" y="394">  ├─┬ electron-builder-util@16.6.0 </tspan>
<tspan x="10" y="410">  │ ├── ini@1.3.4 </tspan>
<tspan x="10" y="426">  │ ├─┬ node-emoji@1.5.1 </tspan>
<tspan x="10" y="442">  │ │ └── string.prototype.codepointat@0.2.0 </tspan>
<tspan x="10" y="458">  │ ├─┬ source-map-support@0.4.14 </tspan>
<tspan x="10" y="474">  │ │ └── source-map@0.5.6 </tspan>
<tspan x="10" y="490">  │ ├── stat-mode@0.2.2 </tspan>
<tspan x="10" y="506">  │ └─┬ tunnel-agent@0.6.0 </tspan>
<tspan x="10" y="522">  │   └── safe-buffer@5.0.1 </tspan>
<tspan x="10" y="538">  ├─┬ electron-download-tf@4.1.1 </tspan>
<tspan x="10" y="554">  │ ├─┬ fs-extra@2.1.2 </tspan>
<tspan x="10" y="570">  │ │ ├── graceful-fs@4.1.11 </tspan>
<tspan x="10" y="586">  │ │ └── jsonfile@2.4.0 </tspan>
<tspan x="10" y="602">  │ ├── minimist@1.2.0 </tspan>
<tspan x="10" y="618">  │ ├─┬ nugget@2.0.1 </tspan>
<tspan x="10" y="634">  │ │ ├─┬ pretty-bytes@1.0.4 </tspan>
<tspan x="10" y="650">  │ │ │ ├── get-stdin@4.0.1 </tspan>
<tspan x="10" y="666">  │ │ │ └─┬ meow@3.7.0 </tspan>
<tspan x="10" y="682">  │ │ │   ├─┬ camelcase-keys@2.1.0 </tspan>
<tspan x="10" y="698">  │ │ │   │ └── camelcase@2.1.1 </tspan>
<tspan x="10" y="714">  │ │ │   ├─┬ loud-rejection@1.6.0 </tspan>
<tspan x="10" y="730">  │ │ │   │ ├─┬ currently-unhandled@0.4.1 </tspan>
<tspan x="10" y="746">  │ │ │   │ │ └── array-find-index@1.0.2 </tspan>
<tspan x="10" y="762">  │ │ │   │ └── signal-exit@3.0.2 </tspan>
<tspan x="10" y="778">  │ │ │   ├── map-obj@1.0.1 </tspan>
<tspan x="10" y="794">  │ │ │   ├── object-assign@4.1.1 </tspan>
<tspan x="10" y="810">  │ │ │   ├─┬ redent@1.0.0 </tspan>
<tspan x="10" y="826">  │ │ │   │ ├─┬ indent-string@2.1.0 </tspan>
<tspan x="10" y="842">  │ │ │   │ │ └─┬ repeating@2.0.1 </tspan>
<tspan x="10" y="858">  │ │ │   │ │   └── is-finite@1.0.2 </tspan>
<tspan x="10" y="874">  │ │ │   │ └── strip-indent@1.0.1 </tspan>
<tspan x="10" y="890">  │ │ │   └── trim-newlines@1.0.0 </tspan>
<tspan x="10" y="906">  │ │ ├─┬ progress-stream@1.2.0 </tspan>
<tspan x="10" y="922">  │ │ │ ├── speedometer@0.1.4 </tspan>
<tspan x="10" y="938">  │ │ │ └─┬ through2@0.2.3 </tspan>
<tspan x="10" y="954">  │ │ │   ├─┬ readable-stream@1.1.14 </tspan>
<tspan x="10" y="970">  │ │ │   │ ├── core-util-is@1.0.2 </tspan>
<tspan x="10" y="986">  │ │ │   │ ├── inherits@2.0.3 </tspan>
<tspan x="10" y="1002">  │ │ │   │ ├── isarray@0.0.1 </tspan>
<tspan x="10" y="1018">  │ │ │   │ └── string_decoder@0.10.31 </tspan>
<tspan x="10" y="1034">  │ │ │   └─┬ xtend@2.1.2 </tspan>
<tspan x="10" y="1050">  │ │ │     └── object-keys@0.4.0 </tspan>
<tspan x="10" y="1066">  │ │ ├─┬ request@2.81.0 </tspan>
<tspan x="10" y="1082">  │ │ │ ├── aws-sign2@0.6.0 </tspan>
<tspan x="10" y="1098">  │ │ │ ├── aws4@1.6.0 </tspan>
<tspan x="10" y="1114">  │ │ │ ├── caseless@0.12.0 </tspan>
<tspan x="10" y="1130">  │ │ │ ├─┬ combined-stream@1.0.5 </tspan>
<tspan x="10" y="1146">  │ │ │ │ └── delayed-stream@1.0.0 </tspan>
<tspan x="10" y="1162">  │ │ │ ├── extend@3.0.0 </tspan>
<tspan x="10" y="1178">  │ │ │ ├── forever-agent@0.6.1 </tspan>
<tspan x="10" y="1194">  │ │ │ ├─┬ form-data@2.1.2 </tspan>
<tspan x="10" y="1210">  │ │ │ │ └── asynckit@0.4.0 </tspan>
<tspan x="10" y="1226">  │ │ │ ├─┬ har-validator@4.2.1 </tspan>
<tspan x="10" y="1242">  │ │ │ │ ├── ajv@4.11.5 </tspan>
<tspan x="10" y="1258">  │ │ │ │ └── har-schema@1.0.5 </tspan>
<tspan x="10" y="1274">  │ │ │ ├─┬ hawk@3.1.3 </tspan>
<tspan x="10" y="1290">  │ │ │ │ ├── boom@2.10.1 </tspan>
<tspan x="10" y="1306">  │ │ │ │ ├── cryptiles@2.0.5 </tspan>
<tspan x="10" y="1322">  │ │ │ │ ├── hoek@2.16.3 </tspan>
<tspan x="10" y="1338">  │ │ │ │ └── sntp@1.0.9 </tspan>
<tspan x="10" y="1354">  │ │ │ ├─┬ http-signature@1.1.1 </tspan>
<tspan x="10" y="1370">  │ │ │ │ ├── assert-plus@0.2.0 </tspan>
<tspan x="10" y="1386">  │ │ │ │ ├─┬ jsprim@1.4.0 </tspan>
<tspan x="10" y="1402">  │ │ │ │ │ ├── assert-plus@1.0.0 </tspan>
<tspan x="10" y="1418">  │ │ │ │ │ ├── extsprintf@1.0.2 </tspan>
<tspan x="10" y="1434">  │ │ │ │ │ ├── json-schema@0.2.3 </tspan>
<tspan x="10" y="1450">  │ │ │ │ │ └── verror@1.3.6 </tspan>
<tspan x="10" y="1466">  │ │ │ │ └─┬ sshpk@1.11.0 </tspan>
<tspan x="10" y="1482">  │ │ │ │   ├── asn1@0.2.3 </tspan>
<tspan x="10" y="1498">  │ │ │ │   ├── assert-plus@1.0.0 </tspan>
<tspan x="10" y="1514">  │ │ │ │   ├── bcrypt-pbkdf@1.0.1 </tspan>
<tspan x="10" y="1530">  │ │ │ │   ├─┬ dashdash@1.14.1 </tspan>
<tspan x="10" y="1546">  │ │ │ │   │ └── assert-plus@1.0.0 </tspan>
<tspan x="10" y="1562">  │ │ │ │   ├── ecc-jsbn@0.1.1 </tspan>
<tspan x="10" y="1578">  │ │ │ │   ├─┬ getpass@0.1.6 </tspan>
<tspan x="10" y="1594">  │ │ │ │   │ └── assert-plus@1.0.0 </tspan>
<tspan x="10" y="1610">  │ │ │ │   ├── jodid25519@1.0.2 </tspan>
<tspan x="10" y="1626">  │ │ │ │   ├── jsbn@0.1.1 </tspan>
<tspan x="10" y="1642">  │ │ │ │   └── tweetnacl@0.14.5 </tspan>
<tspan x="10" y="1658">  │ │ │ ├── is-typedarray@1.0.0 </tspan>
<tspan x="10" y="1674">  │ │ │ ├── isstream@0.1.2 </tspan>
<tspan x="10" y="1690">  │ │ │ ├── json-stringify-safe@5.0.1 </tspan>
<tspan x="10" y="1706">  │ │ │ ├─┬ mime-types@2.1.15 </tspan>
<tspan x="10" y="1722">  │ │ │ │ └── mime-db@1.27.0 </tspan>
<tspan x="10" y="1738">  │ │ │ ├── oauth-sign@0.8.2 </tspan>
<tspan x="10" y="1754">  │ │ │ ├── performance-now@0.2.0 </tspan>
<tspan x="10" y="1770">  │ │ │ ├── qs@6.4.0 </tspan>
<tspan x="10" y="1786">  │ │ │ ├── stringstream@0.0.5 </tspan>
<tspan x="10" y="1802">  │ │ │ ├─┬ tough-cookie@2.3.2 </tspan>
<tspan x="10" y="1818">  │ │ │ │ └── punycode@1.4.1 </tspan>
<tspan x="10" y="1834">  │ │ │ └── uuid@3.0.1 </tspan>
<tspan x="10" y="1850">  │ │ ├── single-line-log@1.1.2 </tspan>
<tspan x="10" y="1866">  │ │ └── throttleit@0.0.2 </tspan>
<tspan x="10" y="1882">  │ ├── path-exists@3.0.0 </tspan>
<tspan x="10" y="1898">  │ ├─┬ rc@1.2.0 </tspan>
<tspan x="10" y="1914">  │ │ ├── deep-extend@0.4.1 </tspan>
<tspan x="10" y="1930">  │ │ └── strip-json-comments@2.0.1 </tspan>
<tspan x="10" y="1946">  │ └── sumchecker@2.0.2 </tspan>
<tspan x="10" y="1962">  ├─┬ electron-macos-sign@1.6.0 </tspan>
<tspan x="10" y="1978">  │ └── compare-version@0.1.2 </tspan>
<tspan x="10" y="1994">  ├─┬ electron-publish@16.6.0 </tspan>
<tspan x="10" y="2010">  │ ├── mime@1.3.4 </tspan>
<tspan x="10" y="2026">  │ └── progress-ex@2.0.0 </tspan>
<tspan x="10" y="2042">  ├── fs-extra-p@4.1.0 </tspan>
<tspan x="10" y="2058">  ├── hosted-git-info@2.4.1 </tspan>
<tspan x="10" y="2074">  ├─┬ is-ci@1.0.10 </tspan>
<tspan x="10" y="2090">  │ └── ci-info@1.0.0 </tspan>
<tspan x="10" y="2106">  ├── isbinaryfile@3.0.2 </tspan>
<tspan x="10" y="2122">  ├─┬ js-yaml@3.8.2 </tspan>
<tspan x="10" y="2138">  │ ├─┬ argparse@1.0.9 </tspan>
<tspan x="10" y="2154">  │ │ └── sprintf-js@1.0.3 </tspan>
<tspan x="10" y="2170">  │ └── esprima@3.1.3 </tspan>
<tspan x="10" y="2186">  ├─┬ minimatch@3.0.3 </tspan>
<tspan x="10" y="2202">  │ └─┬ brace-expansion@1.1.6 </tspan>
<tspan x="10" y="2218">  │   ├── balanced-match@0.4.2 </tspan>
<tspan x="10" y="2234">  │   └── concat-map@0.0.1 </tspan>
<tspan x="10" y="2250">  ├── node-forge@0.7.1 </tspan>
<tspan x="10" y="2266">  ├─┬ normalize-package-data@2.3.6 </tspan>
<tspan x="10" y="2282">  │ ├─┬ is-builtin-module@1.0.0 </tspan>
<tspan x="10" y="2298">  │ │ └── builtin-modules@1.1.1 </tspan>
<tspan x="10" y="2314">  │ └─┬ validate-npm-package-license@3.0.1 </tspan>
<tspan x="10" y="2330">  │   ├─┬ spdx-correct@1.0.2 </tspan>
<tspan x="10" y="2346">  │   │ └── spdx-license-ids@1.2.2 </tspan>
<tspan x="10" y="2362">  │   └── spdx-expression-parse@1.0.4 </tspan>
<tspan x="10" y="2378">  ├─┬ parse-color@1.0.0 </tspan>
<tspan x="10" y="2394">  │ └── color-convert@0.5.3 </tspan>
<tspan x="10" y="2410">  ├─┬ plist@2.0.1 </tspan>
<tspan x="10" y="2426">  │ ├── base64-js@1.1.2 </tspan>
<tspan x="10" y="2442">  │ ├── xmlbuilder@8.2.2 </tspan>
<tspan x="10" y="2458">  │ └── xmldom@0.1.27 </tspan>
<tspan x="10" y="2474">  ├─┬ sanitize-filename@1.6.1 </tspan>
<tspan x="10" y="2490">  │ └─┬ truncate-utf8-bytes@1.0.2 </tspan>
<tspan x="10" y="2506">  │   └── utf8-byte-length@1.0.4 </tspan>
<tspan x="10" y="2522">  ├── semver@5.3.0 </tspan>
<tspan x="10" y="2538">  ├─┬ update-notifier@2.1.0 </tspan>
<tspan x="10" y="2554">  │ ├─┬ boxen@1.0.0 </tspan>
<tspan x="10" y="2570">  │ │ ├── ansi-align@1.1.0 </tspan>
<tspan x="10" y="2586">  │ │ ├── camelcase@4.1.0 </tspan>
<tspan x="10" y="2602">  │ │ ├── cli-boxes@1.0.0 </tspan>
<tspan x="10" y="2618">  │ │ ├─┬ string-width@2.0.0 </tspan>
<tspan x="10" y="2634">  │ │ │ └── is-fullwidth-code-point@2.0.0 </tspan>
<tspan x="10" y="2650">  │ │ ├─┬ term-size@0.1.1 </tspan>
<tspan x="10" y="2666">  │ │ │ └─┬ execa@0.4.0 </tspan>
<tspan x="10" y="2682">  │ │ │   ├─┬ cross-spawn-async@2.2.5 </tspan>
<tspan x="10" y="2698">  │ │ │   │ ├─┬ lru-cache@4.0.2 </tspan>
<tspan x="10" y="2714">  │ │ │   │ │ ├── pseudomap@1.0.2 </tspan>
<tspan x="10" y="2730">  │ │ │   │ │ └── yallist@2.1.2 </tspan>
<tspan x="10" y="2746">  │ │ │   │ └─┬ which@1.2.14 </tspan>
<tspan x="10" y="2762">  │ │ │   │   └── isexe@2.0.0 </tspan>
<tspan x="10" y="2778">  │ │ │   ├── is-stream@1.1.0 </tspan>
<tspan x="10" y="2794">  │ │ │   ├── npm-run-path@1.0.0 </tspan>
<tspan x="10" y="2810">  │ │ │   ├── path-key@1.0.0 </tspan>
<tspan x="10" y="2826">  │ │ │   └── strip-eof@1.0.0 </tspan>
<tspan x="10" y="2842">  │ │ └── widest-line@1.0.0 </tspan>
<tspan x="10" y="2858">  │ ├─┬ configstore@3.0.0 </tspan>
<tspan x="10" y="2874">  │ │ ├─┬ dot-prop@4.1.1 </tspan>
<tspan x="10" y="2890">  │ │ │ └── is-obj@1.0.1 </tspan>
<tspan x="10" y="2906">  │ │ ├─┬ mkdirp@0.5.1 </tspan>
<tspan x="10" y="2922">  │ │ │ └── minimist@0.0.8 </tspan>
<tspan x="10" y="2938">  │ │ ├─┬ unique-string@1.0.0 </tspan>
<tspan x="10" y="2954">  │ │ │ └── crypto-random-string@1.0.0 </tspan>
<tspan x="10" y="2970">  │ │ └─┬ write-file-atomic@1.3.1 </tspan>
<tspan x="10" y="2986">  │ │   ├── imurmurhash@0.1.4 </tspan>
<tspan x="10" y="3002">  │ │   └── slide@1.1.6 </tspan>
<tspan x="10" y="3018">  │ ├── is-npm@1.0.0 </tspan>
<tspan x="10" y="3034">  │ ├─┬ latest-version@3.1.0 </tspan>
<tspan x="10" y="3050">  │ │ └─┬ package-json@4.0.0 </tspan>
<tspan x="10" y="3066">  │ │   ├─┬ got@6.7.1 </tspan>
<tspan x="10" y="3082">  │ │   │ ├─┬ create-error-class@3.0.2 </tspan>
<tspan x="10" y="3098">  │ │   │ │ └── capture-stack-trace@1.0.0 </tspan>
<tspan x="10" y="3114">  │ │   │ ├── duplexer3@0.1.4 </tspan>
<tspan x="10" y="3130">  │ │   │ ├── get-stream@3.0.0 </tspan>
<tspan x="10" y="3146">  │ │   │ ├── is-redirect@1.0.0 </tspan>
<tspan x="10" y="3162">  │ │   │ ├── is-retry-allowed@1.1.0 </tspan>
<tspan x="10" y="3178">  │ │   │ ├── lowercase-keys@1.0.0 </tspan>
<tspan x="10" y="3194">  │ │   │ ├── timed-out@4.0.1 </tspan>
<tspan x="10" y="3210">  │ │   │ ├── unzip-response@2.0.1 </tspan>
<tspan x="10" y="3226">  │ │   │ └─┬ url-parse-lax@1.0.0 </tspan>
<tspan x="10" y="3242">  │ │   │   └── prepend-http@1.0.4 </tspan>
<tspan x="10" y="3258">  │ │   ├── registry-auth-token@3.1.0 </tspan>
<tspan x="10" y="3274">  │ │   └── registry-url@3.1.0 </tspan>
<tspan x="10" y="3290">  │ ├── lazy-req@2.0.0 </tspan>
<tspan x="10" y="3306">  │ ├── semver-diff@2.1.0 </tspan>
<tspan x="10" y="3322">  │ └── xdg-basedir@3.0.0 </tspan>
<tspan x="10" y="3338">  ├─┬ uuid-1345@0.99.6 </tspan>
<tspan x="10" y="3354">  │ └── macaddress@0.2.8 </tspan>
<tspan x="10" y="3370">  └─┬ yargs@7.0.2 </tspan>
<tspan x="10" y="3386">    ├── camelcase@3.0.0 </tspan>
<tspan x="10" y="3402">    ├─┬ cliui@3.2.0 </tspan>
<tspan x="10" y="3418">    │ └── wrap-ansi@2.1.0 </tspan>
<tspan x="10" y="3434">    ├── decamelize@1.2.0 </tspan>
<tspan x="10" y="3450">    ├── get-caller-file@1.0.2 </tspan>
<tspan x="10" y="3466">    ├─┬ os-locale@1.4.0 </tspan>
<tspan x="10" y="3482">    │ └─┬ lcid@1.0.0 </tspan>
<tspan x="10" y="3498">    │   └── invert-kv@1.0.0 </tspan>
<tspan x="10" y="3514">    ├─┬ read-pkg-up@1.0.1 </tspan>
<tspan x="10" y="3530">    │ ├─┬ find-up@1.1.2 </tspan>
<tspan x="10" y="3546">    │ │ ├── path-exists@2.1.0 </tspan>
<tspan x="10" y="3562">    │ │ └─┬ pinkie-promise@2.0.1 </tspan>
<tspan x="10" y="3578">    │ │   └── pinkie@2.0.4 </tspan>
<tspan x="10" y="3594">    │ └─┬ read-pkg@1.1.0 </tspan>
<tspan x="10" y="3610">    │   ├─┬ load-json-file@1.1.0 </tspan>
<tspan x="10" y="3626">    │   │ ├─┬ parse-json@2.2.0 </tspan>
<tspan x="10" y="3642">    │   │ │ └─┬ error-ex@1.3.1 </tspan>
<tspan x="10" y="3658">    │   │ │   └── is-arrayish@0.2.1 </tspan>
<tspan x="10" y="3674">    │   │ ├── pify@2.3.0 </tspan>
<tspan x="10" y="3690">    │   │ └─┬ strip-bom@2.0.0 </tspan>
<tspan x="10" y="3706">    │   │   └── is-utf8@0.2.1 </tspan>
<tspan x="10" y="3722">    │   └── path-type@1.1.0 </tspan>
<tspan x="10" y="3738">    ├── require-directory@2.1.1 </tspan>
<tspan x="10" y="3754">    ├── require-main-filename@1.0.1 </tspan>
<tspan x="10" y="3770">    ├── set-blocking@2.0.0 </tspan>
<tspan x="10" y="3786">    ├─┬ string-width@1.0.2 </tspan>
<tspan x="10" y="3802">    │ ├── code-point-at@1.1.0 </tspan>
<tspan x="10" y="3818">    │ └─┬ is-fullwidth-code-point@1.0.0 </tspan>
<tspan x="10" y="3834">    │   └── number-is-nan@1.0.1 </tspan>
<tspan x="10" y="3850">    ├── which-module@1.0.0 </tspan>
<tspan x="10" y="3866">    ├── y18n@3.2.1 </tspan>
<tspan x="10" y="3882">    └─┬ yargs-parser@5.0.0 </tspan>
<tspan x="10" y="3898">      └── camelcase@3.0.0</tspan>
</text>
</svg>
